<?xml version="1.0" encoding="utf-8"?>
<!-- Generator: Adobe Illustrator 25.0.0, SVG Export Plug-In . SVG Version: 6.00 Build 0)  -->
<svg version="1.1" id="Layer_1" xmlns="http://www.w3.org/2000/svg" xmlns:xlink="http://www.w3.org/1999/xlink" x="0px" y="0px"
	 viewBox="0 0 1920 557.6" style="enable-background:new 0 0 1920 557.6;" xml:space="preserve">
<style type="text/css">
	.st0{fill:#00ADEB;}
	.st1{fill:#FFFFFF;}
</style>
<rect y="-1.4" class="st0" width="1920" height="559"/>
<g>
	<path class="st1" d="M388.4,171.8c28.5-34.1,63.3-61.7,104.4-82.8c4-2.1,8-4.3,11.9-6.5c12.7-4.3,25.3-9.1,38.3-12.7
		c11.3-3.2,23-4.2,35.9,0.9c-33.3,7.7-52.8,28.3-68.9,52.6c-13.4,11.9-18.8,30.8-44.8,36.9c14.7,1.4,11.7,5.3,8.1,9.9
		c-16.6,21.6-36,40.8-59.1,56.9c-24.2,3.8-39.6,18.6-54,35.1c25.2-42.5,59.5-78.6,91.9-116.4c-11.4,5.5-18.8,14.9-27.1,23.3
		c-9.1,9.1-17.6,18.8-26,28.5c-8,9.3-15.5,19.1-23.4,28.9C368.3,213.3,371.5,200.2,388.4,171.8z"/>
	<path class="st1" d="M332.8,368.9c-0.2,0-0.4-0.1-0.5-0.1c-14.4-2.3-26.6,4.4-39.7,6.8c-11.2,2-23.9-9.5-38.8-7.4
		c-19.2,2.7-36.2,11.6-55.5,14.1c-36.9,4.8-36.8,5.4-36.8-27.7c0-51,0.4-101.9-0.2-152.9c-0.1-11.6,3.5-15.5,16.6-15.2
		c20.7,0.4,41.2-2.3,59.8-11.8c17.4-3.4,35-8.3,51.4,2.8c2.7,1.8,5.1,1.2,7.7-0.2c22.9-12.8,44.3-3.9,65.8,3.9
		c2.6,0.9,5.8,1.7,4.7,5.2c-1.2,3.9-4.8,3.7-8,2.8c-8-2.3-15.9-5.3-24-7.4c-26.8-6.9-38.4,1-38.5,25.7c0,46.3,0.2,92.6-0.2,138.9
		c-0.1,9.7,0.5,15.7,14.1,10.9c11.2-3.9,22.4-0.1,32.9,3.6c17.7,6.2,35.9,9.1,54.7,11.2c13.2,1.5,14.8-2.9,14.7-12.8
		c-0.5-36.9-0.3-73.9-0.2-110.9c0-6.7-1-14.4,10.3-14.8c0.1,8.4,0.2,16.8,0.3,25.1c0,6.8,3.2,88.2,2,124.9
		C425,389.9,365.7,382.1,332.8,368.9z"/>
	<path class="st1" d="M442.7,291.8c-0.2,32.6-0.8,65.2-0.4,97.7c0.1,10.5-3.6,14.1-15.3,13.8c-20.1-0.5-40.2,0.2-60.4,0.3
		c-54.6,0-109.2,0-163.7,0c-15.9-0.2-31.9-0.4-47.8-0.5c-6.6,0-12.2-0.5-12.2-8.6c0.6-66.5-1.4-133.1,1.1-199.6
		c10.1,1.4,7.3,8.6,7.3,14c0.2,56,0.5,112-0.2,168c-0.1,12.4,2.9,17.5,17.8,16.7c21.7-1.2,43-2.6,63.2-10.8
		c8.6-3.5,17.8-5.2,27.2-6.2c10.6-1.1,19.8,1,24.6,10.7c3.6,7.3,9.5,8.4,13.1,1.7c7.1-13.3,19.6-12.5,32.2-12.8
		c35.3,14.1,95.9,19.2,101.4,16c4.2-4.3,1.2-44.4,1.5-76.6c1.3-3.7,0.6-42.3-0.6-57.2c0.3-10.1,0.5-20.3,1.1-30.4
		c0.2-3.3,0.7-7.7,5.5-7.7c5.9,0,3.8,4.9,3.9,7.8C442.4,249.5,442.5,270.6,442.7,291.8z"/>
	<path class="st1" d="M500.3,103.5c-2.2,5.9-6.7,8.1-11.3,10.2C490.1,108.6,494,106,500.3,103.5z"/>
	<path class="st1" d="M460.2,166.6c-0.8-0.2-1.6-0.5-2.4-0.7c0.7-0.8,1.2-1.8,2.1-2.2c0.4-0.2,2,0.2,2.2,0.7
		C462.8,165.9,461.6,166.4,460.2,166.6z"/>
	<path class="st1" d="M171.5,284c0-25.5,0.3-51-0.2-76.4c-0.2-9.1,2.6-13.2,13.4-12.9c18.5,0.4,36.3-3.4,53.5-9.7
		c7.8-2.9,16-5,24.6-5.3c15.3-0.4,24.4,6.6,24.5,20.3c0.3,50.5,0.2,101.1,0.1,151.6c0,4.9,0.4,10.1-8.2,7
		c-14.7-5.3-28.8-1.6-42.4,3.3c-16.8,6.1-34.1,9-52,10.5c-9.7,0.8-13.6-1.4-13.5-10.7C171.9,335.8,171.5,309.9,171.5,284z"/>
</g>
<g>
	<path class="st1" d="M565,274.1c0,1.5-0.2,3.1-0.7,4.9c-0.5,1.8-1.2,3.3-2.3,4.5c-1.2,1.5-2.6,2.6-4.2,3.4
		c-1.5,0.8-3.8,1.1-6.9,1.1c-4.7,0-8.3-1.6-11-4.9c-2.7-3.2-5.5-8.6-8.5-16.2c-2.4,1-4.3,3.6-5.7,7.8c-1.5,4.2-2.2,13.1-2.2,26.9v7
		H548v9.6h-24.2V379c0,2.3,0.5,4.1,1.6,5.3c1.1,1.3,2.4,2.2,4.2,2.8c1.4,0.5,3.3,0.9,5.6,1.4c2.3,0.4,4.4,0.7,6.2,0.9v6.5h-59.7
		v-6.5c1.5-0.1,3-0.3,4.5-0.4c1.5-0.2,2.7-0.5,3.9-0.9c1.9-0.7,3.2-1.7,3.9-3c0.7-1.3,1-3.1,1-5.2v-61.6h-17.9v-9.6h17.9
		c0-6.3,0.9-12.4,2.7-18.3c1.8-5.9,4.7-11.2,8.5-15.8c3.7-4.6,8.6-8.3,14.7-11.1c6.1-2.8,13.2-4.2,21.4-4.2c7.3,0,13,1.4,17,4.2
		C563,266,565,269.6,565,274.1z"/>
	<path class="st1" d="M651.6,318.6c4.4,4.1,7.7,8.9,10,14.6c2.3,5.7,3.4,11.8,3.4,18.4c0,6.5-1.1,12.7-3.4,18.5
		c-2.3,5.8-5.6,10.8-9.9,14.9c-4.7,4.4-10.2,7.8-16.7,10.2c-6.5,2.4-13.8,3.5-22.1,3.5c-7.2,0-13.8-1-19.8-3.1
		c-6-2.1-11.4-5.2-16-9.3c-4.5-3.9-8-8.8-10.6-14.6c-2.6-5.8-3.9-12.3-3.9-19.5c0-7.1,1.1-13.4,3.4-18.9c2.3-5.5,5.7-10.4,10.2-14.7
		c4.4-4.1,9.7-7.3,16.1-9.6c6.4-2.3,13.5-3.4,21.4-3.4c8.2,0,15.5,1.1,21.8,3.4C641.8,311.3,647.1,314.5,651.6,318.6z M629,379.9
		c1.3-3.3,2.3-7.3,2.9-12c0.6-4.7,0.9-10.2,0.9-16.4c0-4.1-0.3-8.8-0.9-14.1c-0.6-5.3-1.5-9.5-2.7-12.5c-1.4-3.7-3.4-6.6-5.9-8.7
		c-2.5-2.1-5.7-3.2-9.5-3.2c-4.2,0-7.5,1.1-10,3.4c-2.5,2.3-4.4,5.3-5.8,8.9c-1.2,3.4-2.1,7.3-2.6,11.8c-0.5,4.5-0.7,9.2-0.7,14.1
		c0,6.4,0.2,11.7,0.6,15.9c0.4,4.2,1.4,8.4,3,12.7c1.4,3.7,3.3,6.5,5.8,8.7c2.5,2.1,5.7,3.2,9.6,3.2c3.5,0,6.6-1,9.1-3
		C625.5,386.6,627.5,383.7,629,379.9z"/>
	<path class="st1" d="M773.3,324.4c0,4.5-1.4,8.4-4.2,11.8c-2.8,3.4-6.4,5.1-11,5.1c-4.3,0-7.9-1.1-10.9-3.3c-3-2.2-4.5-5.4-4.5-9.6
		c0-2.1,0.1-3.6,0.4-4.8c0.3-1.1,0.6-2.2,0.8-3.2c-2.7,0.1-5.6,1.1-8.6,2.8c-3,1.8-5.7,4.1-8,7v48.5c0,2.1,0.3,3.8,1,5.1
		c0.6,1.4,1.7,2.4,3.3,3.2c1.3,0.6,3.4,1.2,6.3,1.6c2.9,0.4,5,0.7,6.3,0.8v6.5h-59.1v-6.5c1.5-0.1,3-0.3,4.5-0.5
		c1.5-0.2,2.8-0.5,3.8-0.8c1.9-0.6,3.2-1.6,3.9-3c0.7-1.4,1.1-3.1,1.1-5.3v-51.4c0-2.1-0.5-4-1.5-5.7c-1-1.7-2.2-3-3.6-4
		c-1.1-0.7-2.4-1.3-4-1.8c-1.6-0.5-3.4-0.8-5.3-1v-6.5l42.1-2.3l1.3,1.3v12.8h0.4c4.1-4.7,8.4-8.4,12.9-11.1c4.6-2.7,9.3-4,14.3-4
		c5.5,0,9.9,1.7,13.2,5.1C771.7,314.6,773.3,319,773.3,324.4z"/>
	<path class="st1" d="M963.8,395.9h-52.5v-6.5c1.3-0.2,2.6-0.3,4-0.4c1.4-0.1,2.6-0.4,3.5-0.9c1.3-0.6,2.1-1.6,2.5-3
		c0.4-1.4,0.5-3.2,0.5-5.3v-41.3c0-6.1-1.1-10.6-3.2-13.7c-2.2-3-5.2-4.5-9.3-4.5c-2.5,0-4.8,0.4-6.8,1.2c-2,0.8-3.8,1.8-5.4,3
		c-1.7,1.2-3,2.5-4,3.7c-0.9,1.2-1.7,2.3-2.4,3.2v47.4c0,2.1,0.2,3.8,0.7,5.2s1.4,2.4,2.8,3.1c0.9,0.5,2,1,3.2,1.4
		c1.2,0.4,2.5,0.7,3.8,0.9v6.5H851v-6.5c1.1-0.1,2.5-0.3,4-0.4c1.6-0.2,2.7-0.5,3.5-0.9c1.2-0.6,2-1.6,2.4-2.8
		c0.4-1.2,0.6-3.1,0.6-5.5v-41.3c0-6.1-1.1-10.6-3.2-13.7c-2.2-3-5.2-4.5-9.3-4.5c-2.5,0-4.8,0.4-6.8,1.2c-2,0.8-3.8,1.8-5.4,3
		c-1.7,1.2-3,2.5-4,3.7c-0.9,1.2-1.7,2.3-2.4,3.2v47.4c0,2.1,0.3,3.8,0.8,5.1c0.5,1.4,1.5,2.4,2.8,3.2c0.9,0.5,2,1,3.2,1.4
		c1.2,0.4,2.5,0.7,3.8,0.9v6.5h-52.9v-6.5c1.5-0.1,3-0.3,4.5-0.4c1.5-0.2,2.7-0.5,3.8-0.9c1.9-0.7,3.2-1.7,3.9-3
		c0.7-1.3,1.1-3.1,1.1-5.3v-51.4c0-1.9-0.5-3.7-1.5-5.5c-1-1.8-2.2-3.2-3.6-4.2c-1.1-0.7-2.4-1.3-4-1.8c-1.6-0.5-3.4-0.8-5.3-1v-6.5
		l42.1-2.3l1.3,1.3v12.5h0.4c1.6-1.5,3.6-3.2,5.9-5.3c2.3-2,4.4-3.7,6.4-4.9c2.2-1.4,5-2.6,8.4-3.5c3.4-0.9,7.2-1.4,11.2-1.4
		c6.7,0,12.3,1.5,16.8,4.4c4.5,2.9,7.7,6.8,9.6,11.6h0.8c1.7-1.6,3.8-3.5,6.3-5.6c2.5-2.2,4.7-3.9,6.8-5.2c2.3-1.5,5.2-2.7,8.8-3.7
		c3.6-1,7.4-1.5,11.4-1.5c8.9,0,15.7,2.6,20.5,7.9c4.8,5.2,7.2,12.7,7.2,22.4V379c0,2.2,0.3,3.9,1,5.3c0.6,1.3,1.8,2.3,3.5,3
		c0.9,0.4,2.1,0.8,3.5,1.2c1.4,0.4,3,0.7,4.8,0.9V395.9z"/>
	<path class="st1" d="M1097.6,395.9h-53.1v-6.5c1.1-0.1,2.5-0.3,4.1-0.4c1.6-0.2,2.8-0.5,3.6-0.9c1.2-0.6,2.1-1.6,2.7-2.8
		s0.8-3.1,0.8-5.5v-41.3c0-6-1.1-10.5-3.3-13.6c-2.2-3-5.5-4.5-9.8-4.5c-2.4,0-4.6,0.4-6.6,1.1c-2,0.7-4,1.7-6,3.1
		c-1.7,1.2-3.1,2.4-4.1,3.6c-1,1.2-1.9,2.3-2.6,3.3v47.4c0,2.1,0.3,3.8,0.9,5.2c0.6,1.4,1.6,2.4,2.9,3.1c0.9,0.5,2.1,1,3.5,1.4
		c1.4,0.4,2.8,0.7,4.2,0.9v6.5h-53.7v-6.5c1.5-0.1,3-0.3,4.5-0.5c1.5-0.2,2.8-0.5,3.8-0.8c1.9-0.6,3.2-1.6,3.9-3
		c0.7-1.4,1.1-3.1,1.1-5.3v-51.4c0-1.8-0.5-3.6-1.4-5.4c-0.9-1.8-2.2-3.2-3.7-4.3c-1.1-0.7-2.4-1.3-4-1.8c-1.6-0.5-3.4-0.8-5.3-1
		v-6.5l42.1-2.3l1.3,1.3v12.8h0.4c1.6-1.5,3.7-3.2,6-5.3c2.4-2.1,4.5-3.7,6.5-5c2.2-1.4,5-2.6,8.6-3.6c3.5-1,7.3-1.5,11.3-1.5
		c9.6,0,16.8,2.7,21.6,8.2c4.8,5.4,7.2,12.7,7.2,21.7V379c0,2.2,0.3,3.9,1,5.2c0.6,1.3,1.9,2.3,3.6,3.1c0.9,0.4,2.1,0.8,3.5,1.2
		c1.4,0.4,3,0.7,4.7,0.9V395.9z"/>
	<path class="st1" d="M1213.6,318.1h-19.4c2.3,2.6,4,5.3,5.2,8.2c1.1,2.9,1.7,5.9,1.7,9c0,4.1-1.1,7.9-3.3,11.4
		c-2.2,3.6-5,6.5-8.6,8.7c-3.6,2.3-7.8,4.1-12.6,5.4c-4.8,1.3-10.1,1.9-15.7,1.9h-14.4c-0.7,0.5-1.5,1.4-2.3,2.5
		c-0.9,1.2-1.3,2.3-1.3,3.3c0,2.6,1,4.4,3.1,5.4c2.1,1,5.8,1.6,11.2,1.7c5.4,0.1,10.8,0.3,16.3,0.7c5.5,0.3,9.4,0.5,11.8,0.6
		c3.4,0.2,6.8,0.9,10.2,2.1c3.4,1.2,6.3,2.8,8.7,4.7c2.7,2.1,4.9,4.7,6.7,7.9c1.8,3.2,2.7,6.9,2.7,11.1c0,4.5-1.1,8.7-3.2,12.6
		c-2.2,3.9-5.4,7.4-9.9,10.2c-4.7,3-10.2,5.3-16.7,7c-6.5,1.6-14.6,2.5-24.2,2.5c-15.5,0-27.3-1.9-35.3-5.7
		c-8.1-3.8-12.1-9.4-12.1-17c0-4.7,2.2-8.5,6.5-11.5c4.4-3,11.1-4.7,20.3-4.9V395c-5.4-1.8-9.6-4.3-12.7-7.3c-3-3-4.5-6.6-4.5-10.6
		c0-2.5,0.6-4.6,1.8-6.3c1.2-1.7,2.8-3.2,4.6-4.5c1.6-1.1,3.7-2.1,6-2.9c2.4-0.8,4.3-1.4,5.9-1.9v-1c-8-2.9-13.8-6.5-17.5-10.8
		c-3.7-4.2-5.6-9.4-5.6-15.5c0-8.7,4-15.6,12-20.8c8-5.2,18.1-7.8,30.4-7.8c4,0,7.9,0.3,11.6,1c3.7,0.7,6.6,1.3,8.5,1.8h34.3V318.1z
		 M1186.9,409.2c0-2-0.6-4-1.7-6c-1.1-2-3.6-3.6-7.5-4.8c-2.1-0.4-5.6-0.6-10.5-0.7c-4.9-0.1-11.5-0.2-20-0.2
		c-2.1,1.8-3.8,3.9-5.2,6.3c-1.4,2.4-2.1,5.3-2.1,8.7c0,1.5,0.4,3.1,1.2,4.9c0.8,1.8,2.1,3.4,3.9,4.9c2.1,1.7,4.4,3,6.9,4
		c2.5,1,6.3,1.5,11.5,1.5c7.6,0,13.4-1.5,17.4-4.4C1184.9,420.5,1186.9,415.7,1186.9,409.2z M1172.2,334.9c0-6.9-1.1-12.3-3.3-16.3
		c-2.2-4-5.6-6-10.1-6c-2.3,0-4.3,0.5-6,1.6c-1.7,1.1-3.1,2.7-4.2,4.7c-1,2-1.7,4.3-2,7c-0.4,2.7-0.5,5.4-0.5,8.3
		c0,6.4,1.1,11.7,3.4,15.8c2.2,4.1,5.4,6.2,9.6,6.2c4.3,0,7.5-1.9,9.8-5.6C1171,346.9,1172.2,341.7,1172.2,334.9z"/>
	<path class="st1" d="M1315.9,324.4c0,4.5-1.4,8.4-4.2,11.8c-2.8,3.4-6.4,5.1-11,5.1c-4.3,0-7.9-1.1-10.9-3.3
		c-3-2.2-4.5-5.4-4.5-9.6c0-2.1,0.1-3.6,0.4-4.8c0.3-1.1,0.6-2.2,0.8-3.2c-2.7,0.1-5.6,1.1-8.6,2.8c-3,1.8-5.7,4.1-8,7v48.5
		c0,2.1,0.3,3.8,1,5.1c0.6,1.4,1.7,2.4,3.3,3.2c1.3,0.6,3.4,1.2,6.3,1.6c2.9,0.4,5,0.7,6.3,0.8v6.5h-59.1v-6.5
		c1.5-0.1,3-0.3,4.5-0.5c1.5-0.2,2.8-0.5,3.8-0.8c1.9-0.6,3.2-1.6,3.9-3c0.7-1.4,1.1-3.1,1.1-5.3v-51.4c0-2.1-0.5-4-1.5-5.7
		c-1-1.7-2.2-3-3.6-4c-1.1-0.7-2.4-1.3-4-1.8c-1.6-0.5-3.4-0.8-5.3-1v-6.5l42.1-2.3l1.3,1.3v12.8h0.4c4.1-4.7,8.4-8.4,12.9-11.1
		c4.6-2.7,9.3-4,14.3-4c5.5,0,9.9,1.7,13.2,5.1C1314.2,314.6,1315.9,319,1315.9,324.4z"/>
	<path class="st1" d="M1431.8,394c-2.6,1.1-5.6,2.1-9.2,3.1c-3.5,0.9-7.3,1.4-11.2,1.4c-7.2,0-12.6-1.1-16-3.2
		c-3.4-2.1-5.7-5.2-7-9.2h-0.5c-2,2-3.9,3.7-5.8,5.1c-1.9,1.4-3.9,2.6-6,3.6c-2.8,1.3-5.4,2.3-8,2.9c-2.6,0.6-6.2,1-10.8,1
		c-6.8,0-12.7-2-17.5-6.1c-4.8-4-7.3-9.4-7.3-16.1c0-3.8,0.5-7.1,1.6-9.8c1.1-2.7,2.6-5.1,4.5-7.1c1.8-1.9,3.8-3.5,6.2-4.7
		c2.3-1.2,4.9-2.4,7.7-3.5c5.3-1.9,11.7-4,19.1-6.1c7.4-2.1,12.9-4,16.3-5.6v-8.5c0-1.5-0.1-3.4-0.4-5.8c-0.2-2.4-0.7-4.4-1.5-6.1
		c-0.8-1.9-2.1-3.5-3.9-4.8c-1.8-1.3-4.1-1.9-7-1.9c-2.6,0-4.8,0.4-6.5,1.1c-1.7,0.7-3.1,1.5-4.2,2.3c0.2,1.2,0.7,3,1.5,5.4
		c0.8,2.4,1.2,4.7,1.2,7c0,1-0.3,2.3-0.8,3.8s-1.3,2.7-2.3,3.6c-1.4,1.2-2.9,2.1-4.6,2.7c-1.7,0.6-4.3,1-7.8,1
		c-5,0-8.7-1.2-11.3-3.6s-3.8-5.5-3.8-9.3c0-3.3,1.3-6.3,3.9-8.9c2.6-2.6,5.8-4.8,9.6-6.5c3.7-1.8,8-3.1,12.8-4.1
		c4.8-1,9.3-1.5,13.4-1.5c5.7,0,11,0.3,15.7,1c4.8,0.7,9.1,2.1,12.9,4.2c3.7,2.1,6.6,5.1,8.7,9c2.2,3.9,3.2,9,3.2,15.3
		c0,6.7-0.1,14.5-0.4,23.7c-0.3,9.1-0.4,15.1-0.4,18c0,2.7,0.4,4.7,1.2,6.3c0.8,1.5,2,2.7,3.7,3.4c1,0.5,2.6,0.8,4.7,0.8
		c2.1,0.1,4.1,0.1,5.9,0.1V394z M1388,348c-3.3,1.1-6.6,2.4-9.8,3.9c-3.3,1.4-5.9,3-8,4.6c-2.2,1.7-3.9,3.8-5.1,6.3
		c-1.2,2.6-1.9,5.6-1.9,9.1c0,4.6,1,7.9,3.1,10c2.1,2.1,4.7,3.1,7.8,3.1c3.3,0,5.9-0.7,8-2s3.9-3,5.5-4.9L1388,348z"/>
	<path class="st1" d="M1561.6,394l-43.6,2.6l-1.3-1.2v-8.1l-0.6-0.2c-2.9,3.1-6.8,5.8-11.7,8.2s-9.9,3.5-14.9,3.5
		c-11.9,0-21.7-4.4-29.4-13.3c-7.7-8.8-11.6-20.3-11.6-34.3c0-12.4,4.3-23.1,12.9-32c8.6-8.9,19-13.3,31.3-13.3
		c4.8,0,9.4,0.5,13.6,1.6c4.2,1.1,7.6,2.4,10.1,3.8v-28.9c0-2.2-0.4-4.2-1.3-6.1c-0.9-1.9-2.1-3.4-3.5-4.5c-1.8-1.3-4.1-2.2-6.8-2.8
		c-2.7-0.6-5.5-1-8.3-1.2v-6.5l47.8-2.3l1.3,1.4v115.8c0,2.2,0.4,4.1,1.1,5.7c0.7,1.5,1.9,2.7,3.6,3.6c1.2,0.6,3,1.1,5.4,1.4
		c2.4,0.3,4.3,0.5,5.8,0.5V394z M1516.6,378.3v-49.9c-0.4-1.4-1-2.9-1.7-4.5c-0.7-1.6-1.7-3.2-3-4.7c-1.2-1.2-2.7-2.3-4.7-3.3
		c-2-0.9-4.2-1.4-6.7-1.4c-5.9,0-10.7,3.3-14.5,10c-3.8,6.7-5.6,16.1-5.6,28.2c0,4.8,0.3,9.1,1,12.9c0.7,3.8,1.9,7.3,3.6,10.4
		c1.7,3.1,3.9,5.6,6.6,7.3c2.7,1.8,5.9,2.7,9.7,2.7c3.6,0,6.6-0.7,8.9-2.1C1512.4,382.4,1514.6,380.6,1516.6,378.3z"/>
	<path class="st1" d="M1671.3,374.7c-2.1,3.4-4.5,6.5-7.5,9.5c-2.9,3-6.2,5.5-9.9,7.6c-3.9,2.2-7.9,3.9-12,5.1
		c-4,1.1-8.7,1.7-13.9,1.7c-8.7,0-16.2-1.2-22.6-3.7c-6.3-2.5-11.6-5.8-15.7-10c-4.1-4.2-7.2-9.1-9.2-14.8c-2-5.7-3-11.9-3-18.5
		c0-6,1.1-11.8,3.3-17.3c2.2-5.5,5.3-10.4,9.4-14.7c4-4.2,9.1-7.6,15.2-10.2s12.9-3.9,20.5-3.9c8.2,0,15,1,20.3,3
		c5.3,2,9.7,4.8,13.2,8.3c3.4,3.4,5.8,7.3,7.3,11.9c1.5,4.6,2.3,9.4,2.3,14.4v5.7h-59.7c0,12.1,2.3,21.3,7,27.6
		c4.7,6.3,12,9.5,22.2,9.5c5.5,0,10.5-1.5,14.9-4.6c4.4-3,8.2-6.9,11.3-11.5L1671.3,374.7z M1637.6,341.2c0-3.5-0.2-7.2-0.5-10.9
		s-1-6.7-1.9-9.1c-1-2.8-2.4-4.9-4.1-6.3c-1.7-1.4-3.9-2.1-6.6-2.1c-4.5,0-8.2,2.3-10.9,6.9c-2.7,4.6-4.2,11.9-4.4,21.8
		L1637.6,341.2z"/>
	<path class="st1" d="M1729.6,398.9c-5.7,0-11.3-0.8-16.7-2.5c-5.4-1.7-9.7-3.5-12.7-5.3l-2.7,6h-6.9l-1.1-33h6.5
		c0.9,2.7,2.4,5.6,4.4,9c2.1,3.3,4.4,6.3,7.1,9c2.8,2.7,5.9,4.9,9.5,6.7c3.6,1.8,7.4,2.7,11.4,2.7c5.4,0,9.4-1,12-3.1
		c2.6-2.1,3.9-5.3,3.9-9.7c0-2.4-0.6-4.3-1.8-5.8c-1.2-1.5-2.8-2.9-4.9-4c-2.3-1.2-4.8-2.2-7.6-3c-2.7-0.8-6.1-1.8-10.1-3
		c-4-1.2-7.4-2.4-10.3-3.6c-2.9-1.2-5.8-3.1-8.9-5.7c-2.7-2.3-4.8-5.1-6.4-8.3c-1.6-3.2-2.4-7.1-2.4-11.6c0-8.3,3.5-15,10.5-20.1
		c7-5.1,16.1-7.7,27.4-7.7c5.4,0,10.3,0.5,14.8,1.6c4.5,1.1,8.3,2.3,11.4,3.6l1.9-5.2h6.7l1.4,30.1h-6.2
		c-2.1-6.1-5.6-11.4-10.6-15.9c-5-4.4-10.4-6.7-16.2-6.7c-4.5,0-8.1,0.9-10.7,2.8c-2.6,1.9-3.9,4.5-3.9,7.9c0,4.5,1.9,7.7,5.7,9.7
		c3.8,2,9.1,3.9,15.9,5.7c10.5,2.7,18.2,6.4,23.1,11.1c4.9,4.7,7.3,10.6,7.3,17.9c0,9.7-3.8,17.1-11.4,22.4
		C1751.7,396.2,1741.8,398.9,1729.6,398.9z"/>
</g>
</svg>
