<?xml version="1.0" encoding="utf-8"?>
<!-- Generator: Adobe Illustrator 25.0.0, SVG Export Plug-In . SVG Version: 6.00 Build 0)  -->
<svg version="1.1" id="Layer_1" xmlns="http://www.w3.org/2000/svg" xmlns:xlink="http://www.w3.org/1999/xlink" x="0px" y="0px"
	 viewBox="0 0 1920 424.3" style="enable-background:new 0 0 1920 424.3;" xml:space="preserve">
<style type="text/css">
	.st0{display:none;fill:#00F4D5;}
	.st1{fill:#130074;}
</style>
<rect class="st0" width="1920" height="424.3"/>
<g>
	<path class="st1" d="M257,128.9c28.5-34.1,63.3-61.7,104.4-82.8c4-2.1,8-4.3,11.9-6.5c12.7-4.3,25.3-9.1,38.3-12.7
		c11.3-3.2,23-4.2,35.9,0.9c-33.3,7.7-52.8,28.3-68.9,52.6c-13.4,11.9-18.8,30.8-44.8,36.9c14.7,1.4,11.7,5.3,8.1,9.9
		c-16.6,21.6-36,40.8-59.1,56.9c-24.2,3.8-39.6,18.6-54,35.1c25.2-42.5,59.5-78.6,91.9-116.4c-11.4,5.5-18.8,14.9-27.1,23.3
		c-9.1,9.1-17.6,18.8-26,28.5c-8,9.3-15.5,19.1-23.4,28.9C236.9,170.4,240.1,157.3,257,128.9z"/>
	<path class="st1" d="M201.4,326c-0.2,0-0.4-0.1-0.5-0.1c-14.4-2.3-26.6,4.4-39.7,6.8c-11.2,2-23.9-9.5-38.8-7.4
		c-19.2,2.7-36.2,11.6-55.5,14.1c-36.9,4.8-36.8,5.4-36.8-27.7c0-51,0.4-101.9-0.2-152.9c-0.1-11.6,3.5-15.5,16.6-15.2
		c20.7,0.4,41.2-2.3,59.8-11.8c17.4-3.4,35-8.3,51.4,2.8c2.7,1.8,5.1,1.2,7.7-0.2c22.9-12.8,44.3-3.9,65.8,3.9
		c2.6,0.9,5.8,1.7,4.7,5.2c-1.2,3.9-4.8,3.7-8,2.8c-8-2.3-15.9-5.3-24-7.4c-26.8-6.9-38.4,1-38.5,25.7c0,46.3,0.2,92.6-0.2,138.9
		c-0.1,9.7,0.5,15.7,14.1,10.9c11.2-3.9,22.4-0.1,32.9,3.6c17.7,6.2,35.9,9.1,54.7,11.2c13.2,1.5,14.8-2.9,14.7-12.8
		c-0.5-36.9-0.3-73.9-0.2-110.9c0-6.7-1-14.4,10.3-14.8c0.1,8.4,0.2,16.8,0.3,25.1c0,6.8,3.2,88.2,2,124.9
		C293.6,347,234.3,339.2,201.4,326z"/>
	<path class="st1" d="M311.3,248.9c-0.2,32.6-0.8,65.2-0.4,97.7c0.1,10.5-3.6,14.1-15.3,13.8c-20.1-0.5-40.2,0.2-60.4,0.3
		c-54.6,0-109.2,0-163.7,0c-15.9-0.2-31.9-0.4-47.8-0.5c-6.6,0-12.2-0.5-12.2-8.6c0.6-66.5-1.4-133.1,1.1-199.6
		c10.1,1.4,7.3,8.6,7.3,14c0.2,56,0.5,112-0.2,168c-0.1,12.4,2.9,17.5,17.8,16.7c21.7-1.2,43-2.6,63.2-10.8
		c8.6-3.5,17.8-5.2,27.2-6.2c10.6-1.1,19.8,1,24.6,10.7c3.6,7.3,9.5,8.4,13.1,1.7c7.1-13.3,19.6-12.5,32.2-12.8
		c35.3,14.1,95.9,19.2,101.4,16c4.2-4.3,1.2-44.4,1.5-76.6c1.3-3.7,0.6-42.3-0.6-57.2c0.3-10.1,0.5-20.3,1.1-30.4
		c0.2-3.3,0.7-7.7,5.5-7.7c5.9,0,3.8,4.9,3.9,7.8C311,206.6,311.1,227.7,311.3,248.9z"/>
	<path class="st1" d="M368.9,60.6c-2.2,5.9-6.7,8.1-11.3,10.2C358.7,65.7,362.6,63.1,368.9,60.6z"/>
	<path class="st1" d="M328.8,123.7c-0.8-0.2-1.6-0.5-2.4-0.7c0.7-0.8,1.2-1.8,2.1-2.2c0.4-0.2,2,0.2,2.2,0.7
		C331.4,123,330.2,123.5,328.8,123.7z"/>
	<path class="st1" d="M40.1,241.1c0-25.5,0.3-51-0.2-76.4c-0.2-9.1,2.6-13.2,13.4-12.9c18.5,0.4,36.3-3.4,53.5-9.7
		c7.8-2.9,16-5,24.6-5.3c15.3-0.4,24.4,6.6,24.5,20.3c0.3,50.5,0.2,101.1,0.1,151.6c0,4.9,0.4,10.1-8.2,7
		c-14.7-5.3-28.8-1.6-42.4,3.3c-16.8,6.1-34.1,9-52,10.5c-9.7,0.8-13.6-1.4-13.5-10.7C40.5,292.9,40.1,267,40.1,241.1z"/>
</g>
<g>
	<path class="st1" d="M425.2,180.9c0,2.2-0.2,4.6-0.9,7.2s-1.5,4.9-2.8,6.6c-1.5,2.2-3.2,3.8-5.1,5c-1.8,1.2-4.7,1.6-8.5,1.6
		c-5.8,0-10.2-2.4-13.5-7.2c-3.3-4.7-6.7-12.7-10.4-23.8c-2.9,1.5-5.3,5.3-7,11.5c-1.8,6.2-2.7,19.3-2.7,39.6v10.3h30v14.1h-29.7
		v89.5c0,3.4,0.6,6,2,7.8c1.3,1.9,2.9,3.2,5.1,4.1c1.7,0.7,4,1.3,6.9,2.1c2.8,0.6,5.4,1,7.6,1.3v9.6H323v-9.6
		c1.8-0.1,3.7-0.4,5.5-0.6c1.8-0.3,3.3-0.7,4.8-1.3c2.3-1,3.9-2.5,4.8-4.4s1.2-4.6,1.2-7.7V246h-21.9v-14.1h21.9
		c0-9.3,1.1-18.2,3.3-26.9c2.2-8.7,5.8-16.5,10.4-23.2c4.5-6.8,10.5-12.2,18-16.3s16.2-6.2,26.2-6.2c8.9,0,15.9,2.1,20.8,6.2
		C422.7,169,425.2,174.3,425.2,180.9z"/>
	<path class="st1" d="M531.3,246.4c5.4,6,9.4,13.1,12.3,21.5s4.2,17.4,4.2,27.1c0,9.6-1.3,18.7-4.2,27.2
		c-2.8,8.5-6.9,15.9-12.1,21.9c-5.8,6.5-12.5,11.5-20.5,15s-16.9,5.2-27.1,5.2c-8.8,0-16.9-1.5-24.3-4.6s-14-7.7-19.6-13.7
		c-5.5-5.7-9.8-12.9-13-21.5c-3.2-8.5-4.8-18.1-4.8-28.7c0-10.4,1.3-19.7,4.2-27.8c2.8-8.1,7-15.3,12.5-21.6
		c5.4-6,11.9-10.7,19.7-14.1c7.8-3.4,16.5-5,26.2-5c10.1,0,19,1.6,26.7,5S525.8,240.3,531.3,246.4z M503.6,336.6
		c1.6-4.9,2.8-10.7,3.6-17.7c0.7-6.9,1.1-15,1.1-24.1c0-6-0.4-12.9-1.1-20.7c-0.7-7.8-1.8-14-3.3-18.4c-1.7-5.4-4.2-9.7-7.2-12.8
		c-3.1-3.1-7-4.7-11.6-4.7c-5.1,0-9.2,1.6-12.3,5s-5.4,7.8-7.1,13.1c-1.5,5-2.6,10.7-3.2,17.4c-0.6,6.6-0.9,13.5-0.9,20.7
		c0,9.4,0.2,17.2,0.7,23.4c0.5,6.2,1.7,12.4,3.7,18.7c1.7,5.4,4,9.6,7.1,12.8c3.1,3.1,7,4.7,11.8,4.7c4.3,0,8.1-1.5,11.2-4.4
		C499.3,346.4,501.8,342.2,503.6,336.6z"/>
	<path class="st1" d="M680.5,254.9c0,6.6-1.7,12.4-5.1,17.4c-3.4,5-7.8,7.5-13.5,7.5c-5.3,0-9.7-1.6-13.4-4.9
		c-3.7-3.2-5.5-7.9-5.5-14.1c0-3.1,0.1-5.3,0.5-7.1c0.4-1.6,0.7-3.2,1-4.7c-3.3,0.1-6.9,1.6-10.5,4.1c-3.7,2.6-7,6-9.8,10.3v71.4
		c0,3.1,0.4,5.6,1.2,7.5c0.7,2.1,2.1,3.5,4,4.7c1.6,0.9,4.2,1.8,7.7,2.4c3.6,0.6,6.1,1,7.7,1.2v9.6h-72.4v-9.6
		c1.8-0.1,3.7-0.4,5.5-0.7s3.4-0.7,4.7-1.2c2.3-0.9,3.9-2.4,4.8-4.4c0.9-2.1,1.3-4.6,1.3-7.8v-75.6c0-3.1-0.6-5.9-1.8-8.4
		s-2.7-4.4-4.4-5.9c-1.3-1-2.9-1.9-4.9-2.6c-2-0.7-4.2-1.2-6.5-1.5v-9.6l51.6-3.4l1.6,1.9v18.8h0.5c5-6.9,10.3-12.4,15.8-16.3
		c5.6-4,11.4-5.9,17.5-5.9c6.7,0,12.1,2.5,16.2,7.5C678.5,240.5,680.5,247,680.5,254.9z"/>
	<path class="st1" d="M913.9,360.1h-64.3v-9.6c1.6-0.3,3.2-0.4,4.9-0.6c1.7-0.1,3.2-0.6,4.3-1.3c1.6-0.9,2.6-2.4,3.1-4.4
		c0.5-2.1,0.6-4.7,0.6-7.8v-60.8c0-9-1.3-15.6-3.9-20.2c-2.7-4.4-6.4-6.6-11.4-6.6c-3.1,0-5.9,0.6-8.3,1.8c-2.5,1.2-4.7,2.6-6.6,4.4
		c-2.1,1.8-3.7,3.7-4.9,5.4c-1.1,1.8-2.1,3.4-2.9,4.7V335c0,3.1,0.2,5.6,0.9,7.7c0.6,2.1,1.7,3.5,3.4,4.6c1.1,0.7,2.5,1.5,3.9,2.1
		c1.5,0.6,3.1,1,4.7,1.3v9.6h-61.5v-9.6c1.3-0.1,3.1-0.4,4.9-0.6c2-0.3,3.3-0.7,4.3-1.3c1.5-0.9,2.5-2.4,2.9-4.1s0.7-4.6,0.7-8.1
		v-60.8c0-9-1.3-15.6-3.9-20.2c-2.7-4.4-6.4-6.6-11.4-6.6c-3.1,0-5.9,0.6-8.3,1.8c-2.5,1.2-4.7,2.6-6.6,4.4
		c-2.1,1.8-3.7,3.7-4.9,5.4c-1.1,1.8-2.1,3.4-2.9,4.7V335c0,3.1,0.4,5.6,1,7.5c0.6,2.1,1.8,3.5,3.4,4.7c1.1,0.7,2.5,1.5,3.9,2.1
		c1.5,0.6,3.1,1,4.7,1.3v9.6h-64.8v-9.6c1.8-0.1,3.7-0.4,5.5-0.6c1.8-0.3,3.3-0.7,4.7-1.3c2.3-1,3.9-2.5,4.8-4.4
		c0.9-1.9,1.3-4.6,1.3-7.8v-75.6c0-2.8-0.6-5.4-1.8-8.1c-1.2-2.6-2.7-4.7-4.4-6.2c-1.3-1-2.9-1.9-4.9-2.6c-2-0.7-4.2-1.2-6.5-1.5
		v-9.6l51.6-3.4l1.6,1.9v18.4h0.5c2-2.2,4.4-4.7,7.2-7.8c2.8-2.9,5.4-5.4,7.8-7.2c2.7-2.1,6.1-3.8,10.3-5.2
		c4.2-1.3,8.8-2.1,13.7-2.1c8.2,0,15.1,2.2,20.6,6.5s9.4,10,11.8,17.1h1c2.1-2.4,4.7-5.2,7.7-8.2c3.1-3.2,5.8-5.7,8.3-7.7
		c2.8-2.2,6.4-4,10.8-5.4c4.4-1.5,9.1-2.2,14-2.2c10.9,0,19.2,3.8,25.1,11.6c5.9,7.7,8.8,18.7,8.8,33v63.1c0,3.2,0.4,5.7,1.2,7.8
		c0.7,1.9,2.2,3.4,4.3,4.4c1.1,0.6,2.6,1.2,4.3,1.8c1.7,0.6,3.7,1,5.9,1.3v9.6L913.9,360.1L913.9,360.1z"/>
	<path class="st1" d="M1077.9,360.1h-65.1v-9.6c1.3-0.1,3.1-0.4,5-0.6c2-0.3,3.4-0.7,4.4-1.3c1.5-0.9,2.6-2.4,3.3-4.1
		c0.7-1.8,1-4.6,1-8.1v-60.8c0-8.8-1.3-15.5-4-20c-2.7-4.4-6.7-6.6-12-6.6c-2.9,0-5.6,0.6-8.1,1.6s-4.9,2.5-7.4,4.6
		c-2.1,1.8-3.8,3.5-5,5.3s-2.3,3.4-3.2,4.9v69.7c0,3.1,0.4,5.6,1.1,7.7c0.7,2.1,2,3.5,3.6,4.6c1.1,0.7,2.6,1.5,4.3,2.1
		s3.4,1,5.1,1.3v9.6h-65.8v-9.6c1.8-0.1,3.7-0.4,5.5-0.7c1.8-0.3,3.4-0.7,4.7-1.2c2.3-0.9,3.9-2.4,4.8-4.4c0.9-2.1,1.3-4.6,1.3-7.8
		v-75.6c0-2.6-0.6-5.3-1.7-7.9s-2.7-4.7-4.5-6.3c-1.3-1-2.9-1.9-4.9-2.6c-2-0.7-4.2-1.2-6.5-1.5V233l51.6-3.4l1.6,1.9v18.8h0.5
		c2-2.2,4.5-4.7,7.4-7.8s5.5-5.4,8-7.4c2.7-2.1,6.1-3.8,10.5-5.3c4.3-1.5,8.9-2.2,13.9-2.2c11.8,0,20.6,4,26.5,12.1
		c5.9,7.9,8.8,18.7,8.8,31.9v63.6c0,3.2,0.4,5.7,1.2,7.7c0.7,1.9,2.3,3.4,4.4,4.6c1.1,0.6,2.6,1.2,4.3,1.8c1.7,0.6,3.7,1,5.8,1.3
		v9.6h-0.4V360.1z"/>
	<path class="st1" d="M1220.1,245.6h-23.8c2.8,3.8,4.9,7.8,6.4,12.1c1.3,4.3,2.1,8.7,2.1,13.2c0,6-1.3,11.6-4,16.8
		c-2.7,5.3-6.1,9.6-10.5,12.8c-4.4,3.4-9.6,6-15.4,7.9c-5.9,1.9-12.4,2.8-19.2,2.8h-17.6c-0.9,0.7-1.8,2.1-2.8,3.7
		c-1.1,1.8-1.6,3.4-1.6,4.9c0,3.8,1.2,6.5,3.8,7.9c2.6,1.5,7.1,2.4,13.7,2.5s13.2,0.4,20,1c6.7,0.4,11.5,0.7,14.5,0.9
		c4.2,0.3,8.3,1.3,12.5,3.1c4.2,1.8,7.7,4.1,10.7,6.9c3.3,3.1,6,6.9,8.2,11.6s3.3,10.2,3.3,16.3c0,6.6-1.3,12.8-3.9,18.5
		c-2.7,5.7-6.6,10.9-12.1,15c-5.8,4.4-12.5,7.8-20.5,10.3c-8,2.4-17.9,3.7-29.7,3.7c-19,0-33.5-2.8-43.3-8.4
		c-9.9-5.6-14.8-13.8-14.8-25c0-6.9,2.7-12.5,8-16.9c5.4-4.4,13.6-6.9,24.9-7.2v-1.3c-6.6-2.6-11.8-6.3-15.6-10.7
		c-3.7-4.4-5.5-9.7-5.5-15.6c0-3.7,0.7-6.8,2.2-9.3s3.4-4.7,5.6-6.6c2-1.6,4.5-3.1,7.4-4.3c2.9-1.2,5.3-2.1,7.2-2.8V308
		c-9.8-4.3-16.9-9.6-21.4-15.9c-4.5-6.2-6.9-13.8-6.9-22.8c0-12.8,4.9-23,14.7-30.6c9.8-7.7,22.2-11.5,37.3-11.5
		c4.9,0,9.7,0.4,14.2,1.5s8.1,1.9,10.4,2.6h42v14.3L1220.1,245.6L1220.1,245.6z M1187.4,379.7c0-2.9-0.7-5.9-2.1-8.8
		c-1.3-2.9-4.4-5.3-9.2-7.1c-2.6-0.6-6.9-0.9-12.9-1s-14.1-0.3-24.5-0.3c-2.6,2.6-4.7,5.7-6.4,9.3c-1.7,3.5-2.6,7.8-2.6,12.8
		c0,2.2,0.5,4.6,1.5,7.2s2.6,5,4.8,7.2c2.6,2.5,5.4,4.4,8.5,5.9s7.7,2.2,14.1,2.2c9.3,0,16.4-2.2,21.3-6.5
		C1184.9,396.3,1187.4,389.3,1187.4,379.7z M1169.4,270.4c0-10.2-1.3-18.1-4-24s-6.9-8.8-12.4-8.8c-2.8,0-5.3,0.7-7.4,2.4
		c-2.1,1.6-3.8,4-5.1,6.9c-1.2,2.9-2.1,6.3-2.5,10.3c-0.5,4-0.6,7.9-0.6,12.2c0,9.4,1.3,17.2,4.2,23.2c2.7,6,6.6,9.1,11.8,9.1
		c5.3,0,9.2-2.8,12-8.2C1167.9,288,1169.4,280.4,1169.4,270.4z"/>
	<path class="st1" d="M1345.5,254.9c0,6.6-1.7,12.4-5.1,17.4s-7.8,7.5-13.5,7.5c-5.3,0-9.7-1.6-13.4-4.9c-3.7-3.2-5.5-7.9-5.5-14.1
		c0-3.1,0.1-5.3,0.5-7.1c0.4-1.6,0.7-3.2,1-4.7c-3.3,0.1-6.9,1.6-10.5,4.1c-3.7,2.6-7,6-9.8,10.3v71.4c0,3.1,0.4,5.6,1.2,7.5
		c0.7,2.1,2.1,3.5,4,4.7c1.6,0.9,4.2,1.8,7.7,2.4c3.6,0.6,6.1,1,7.7,1.2v9.6h-72.4v-9.6c1.8-0.1,3.7-0.4,5.5-0.7s3.4-0.7,4.7-1.2
		c2.3-0.9,3.9-2.4,4.8-4.4c0.9-2.1,1.3-4.6,1.3-7.8v-75.6c0-3.1-0.6-5.9-1.8-8.4s-2.7-4.4-4.4-5.9c-1.3-1-2.9-1.9-4.9-2.6
		c-2-0.7-4.2-1.2-6.5-1.5v-9.6l51.6-3.4l1.6,1.9v18.8h0.5c5-6.9,10.3-12.4,15.8-16.3c5.6-4,11.4-5.9,17.5-5.9
		c6.7,0,12.1,2.5,16.2,7.5C1343.4,240.5,1345.5,247,1345.5,254.9z"/>
	<path class="st1" d="M1487.6,357.3c-3.2,1.6-6.9,3.1-11.3,4.6c-4.3,1.3-8.9,2.1-13.7,2.1c-8.8,0-15.4-1.6-19.6-4.7s-7-7.7-8.6-13.5
		h-0.6c-2.5,2.9-4.8,5.4-7.1,7.5c-2.3,2.1-4.8,3.8-7.4,5.3c-3.4,1.9-6.6,3.4-9.8,4.3c-3.2,0.9-7.6,1.5-13.2,1.5
		c-8.3,0-15.6-2.9-21.4-9c-5.9-5.9-8.9-13.8-8.9-23.7c0-5.6,0.6-10.4,2-14.4c1.3-4,3.2-7.5,5.5-10.4c2.2-2.8,4.7-5.2,7.6-6.9
		c2.8-1.8,6-3.5,9.4-5.2c6.5-2.8,14.3-5.9,23.4-9s15.8-5.9,20-8.2v-12.5c0-2.2-0.1-5-0.5-8.5c-0.2-3.5-0.9-6.5-1.8-9
		c-1-2.8-2.6-5.2-4.8-7.1c-2.2-1.9-5-2.8-8.6-2.8c-3.2,0-5.9,0.6-8,1.6s-3.8,2.2-5.1,3.4c0.2,1.8,0.9,4.4,1.8,7.9s1.5,6.9,1.5,10.3
		c0,1.5-0.4,3.4-1,5.6s-1.6,4-2.8,5.3c-1.7,1.8-3.6,3.1-5.6,4c-2.1,0.9-5.3,1.5-9.6,1.5c-6.1,0-10.7-1.8-13.9-5.3
		c-3.2-3.5-4.7-8.1-4.7-13.7c0-4.9,1.6-9.3,4.8-13.1c3.2-3.8,7.1-7.1,11.8-9.6c4.5-2.6,9.8-4.6,15.7-6c5.9-1.5,11.4-2.2,16.4-2.2
		c7,0,13.5,0.4,19.2,1.5c5.9,1,11.2,3.1,15.8,6.2c4.5,3.1,8.1,7.5,10.7,13.2c2.7,5.7,3.9,13.2,3.9,22.5c0,9.9-0.1,21.3-0.5,34.9
		c-0.4,13.4-0.5,22.2-0.5,26.5c0,4,0.5,6.9,1.5,9.3c1,2.2,2.5,4,4.5,5c1.2,0.7,3.2,1.2,5.8,1.2c2.6,0.1,5,0.1,7.2,0.1v9.7h0.5V357.3
		z M1433.9,289.6c-4,1.6-8.1,3.5-12,5.7c-4,2.1-7.2,4.4-9.8,6.8c-2.7,2.5-4.8,5.6-6.3,9.3c-1.5,3.8-2.3,8.2-2.3,13.4
		c0,6.8,1.2,11.6,3.8,14.7c2.6,3.1,5.8,4.6,9.6,4.6c4,0,7.2-1,9.8-2.9c2.6-1.9,4.8-4.4,6.7-7.2L1433.9,289.6z"/>
	<path class="st1" d="M1646.7,357.3l-53.4,3.8l-1.6-1.8v-11.9l-0.7-0.3c-3.6,4.6-8.3,8.5-14.3,12.1c-6,3.5-12.1,5.2-18.3,5.2
		c-14.6,0-26.6-6.5-36-19.6c-9.4-12.9-14.2-29.9-14.2-50.5c0-18.2,5.3-34,15.8-47.1s23.3-19.6,38.4-19.6c5.9,0,11.5,0.7,16.7,2.4
		c5.1,1.6,9.3,3.5,12.4,5.6v-42.5c0-3.2-0.5-6.2-1.6-9s-2.6-5-4.3-6.6c-2.2-1.9-5-3.2-8.3-4.1c-3.3-0.9-6.7-1.5-10.2-1.8V162
		l58.6-3.4l1.6,2.1v170.4c0,3.2,0.5,6,1.3,8.4c0.9,2.2,2.3,4,4.4,5.3c1.5,0.9,3.7,1.6,6.6,2.1s5.3,0.7,7.1,0.7V357.3L1646.7,357.3z
		 M1591.5,334.2v-73.4c-0.5-2.1-1.2-4.3-2.1-6.6c-0.9-2.4-2.1-4.7-3.7-6.9c-1.5-1.8-3.3-3.4-5.8-4.9c-2.5-1.3-5.1-2.1-8.2-2.1
		c-7.2,0-13.1,4.9-17.8,14.7s-6.9,23.7-6.9,41.5c0,7.1,0.4,13.4,1.2,19c0.9,5.6,2.3,10.7,4.4,15.3c2.1,4.6,4.8,8.2,8.1,10.7
		c3.3,2.6,7.2,4,11.9,4c4.4,0,8.1-1,10.9-3.1C1586.4,340.3,1589,337.6,1591.5,334.2z"/>
	<path class="st1" d="M1781.1,328.9c-2.6,5-5.5,9.6-9.2,14c-3.6,4.4-7.6,8.1-12.1,11.2c-4.8,3.2-9.7,5.7-14.7,7.5
		c-4.9,1.6-10.7,2.5-17,2.5c-10.7,0-19.9-1.8-27.7-5.4c-7.7-3.7-14.2-8.5-19.2-14.7s-8.8-13.4-11.3-21.8s-3.7-17.5-3.7-27.2
		c0-8.8,1.3-17.4,4-25.5s6.5-15.3,11.5-21.6c4.9-6.2,11.2-11.2,18.6-15c7.5-3.8,15.8-5.7,25.1-5.7c10.1,0,18.4,1.5,24.9,4.4
		s11.9,7.1,16.2,12.2c4.2,5,7.1,10.7,8.9,17.5c1.8,6.8,2.8,13.8,2.8,21.2v8.4H1705c0,17.8,2.8,31.3,8.6,40.6
		c5.8,9.3,14.7,14,27.2,14c6.7,0,12.9-2.2,18.3-6.8c5.4-4.4,10.1-10.2,13.9-16.9L1781.1,328.9z M1739.8,279.6c0-5.2-0.2-10.6-0.6-16
		s-1.2-9.9-2.3-13.4c-1.2-4.1-2.9-7.2-5-9.3s-4.8-3.1-8.1-3.1c-5.5,0-10.1,3.4-13.4,10.2s-5.1,17.5-5.4,32.1L1739.8,279.6z"/>
	<path class="st1" d="M1852.6,364.5c-7,0-13.9-1.2-20.5-3.7s-11.9-5.2-15.6-7.8l-3.3,8.8h-8.5l-1.3-48.6h8c1.1,4,2.9,8.2,5.4,13.2
		c2.6,4.9,5.4,9.3,8.7,13.2c3.4,4,7.2,7.2,11.6,9.9c4.4,2.6,9.1,4,14,4c6.6,0,11.5-1.5,14.7-4.6s4.8-7.8,4.8-14.3
		c0-3.5-0.7-6.3-2.2-8.5s-3.4-4.3-6-5.9c-2.8-1.8-5.9-3.2-9.3-4.4c-3.3-1.2-7.5-2.6-12.4-4.4s-9.1-3.5-12.6-5.3s-7.1-4.6-10.9-8.4
		c-3.3-3.4-5.9-7.5-7.8-12.2c-2-4.7-2.9-10.4-2.9-17.1c0-12.2,4.3-22.1,12.9-29.6s19.7-11.3,33.6-11.3c6.6,0,12.6,0.7,18.1,2.4
		c5.5,1.6,10.2,3.4,14,5.3l2.3-7.7h8.2l1.7,44.3h-7.6c-2.6-9-6.9-16.8-13-23.4c-6.1-6.5-12.7-9.9-19.9-9.9c-5.5,0-9.9,1.3-13.1,4.1
		s-4.8,6.6-4.8,11.6c0,6.6,2.3,11.3,7,14.3c4.7,2.9,11.2,5.7,19.5,8.4c12.9,4,22.3,9.4,28.3,16.3s8.9,15.6,8.9,26.3
		c0,14.3-4.7,25.2-14,33C1879.7,360.6,1867.5,364.5,1852.6,364.5z"/>
</g>
</svg>
